<?xml version="1.0" encoding="UTF-8" standalone="no"?>
<!-- Created with Inkscape (http://www.inkscape.org/) -->

<svg
   width="210mm"
   height="297mm"
   viewBox="0 0 210 297"
   version="1.1"
   id="svg1"
   inkscape:version="1.4 (86a8ad7, 2024-10-11)"
   sodipodi:docname="relation8.svg"
   xmlns:inkscape="http://www.inkscape.org/namespaces/inkscape"
   xmlns:sodipodi="http://sodipodi.sourceforge.net/DTD/sodipodi-0.dtd"
   xmlns="http://www.w3.org/2000/svg"
   xmlns:svg="http://www.w3.org/2000/svg"
   xmlns:ns9="http://www.iki.fi/pav/software/textext/">
  <sodipodi:namedview
     id="namedview1"
     pagecolor="#ffffff"
     bordercolor="#000000"
     borderopacity="0.25"
     inkscape:showpageshadow="2"
     inkscape:pageopacity="0.0"
     inkscape:pagecheckerboard="0"
     inkscape:deskcolor="#d1d1d1"
     inkscape:document-units="mm"
     inkscape:zoom="5.5803031"
     inkscape:cx="305.35975"
     inkscape:cy="403.65191"
     inkscape:window-width="1920"
     inkscape:window-height="1001"
     inkscape:window-x="-9"
     inkscape:window-y="-9"
     inkscape:window-maximized="1"
     inkscape:current-layer="layer1" />
  <defs
     id="defs1">
    <g
       id="g25"
       style="fill:#000000;fill-opacity:1;stroke-width:0">
      <g
         id="g24"
         style="fill:#000000;fill-opacity:1;stroke-width:0">
        <path
           d="m 3.953125,-3.78125 c -0.171875,0 -0.296875,0 -0.4375,0.125 -0.171875,0.15625 -0.1875,0.328125 -0.1875,0.390625 0,0.25 0.1875,0.359375 0.375,0.359375 0.28125,0 0.546875,-0.25 0.546875,-0.640625 0,-0.484375 -0.46875,-0.859375 -1.171875,-0.859375 -1.34375,0 -2.671875,1.421875 -2.671875,2.828125 0,0.90625 0.578125,1.6875 1.625,1.6875 1.421875,0 2.25,-1.0625 2.25,-1.171875 0,-0.0625 -0.046875,-0.140625 -0.109375,-0.140625 -0.0625,0 -0.078125,0.03125 -0.140625,0.109375 -0.78125,0.984375 -1.875,0.984375 -1.984375,0.984375 -0.625,0 -0.90625,-0.484375 -0.90625,-1.09375 0,-0.40625 0.203125,-1.375 0.546875,-1.984375 0.3125,-0.578125 0.859375,-1 1.40625,-1 0.328125,0 0.71875,0.125 0.859375,0.40625 z m 0,0"
           id="path23"
           style="fill:#000000;fill-opacity:1;stroke-width:0" />
      </g>
    </g>
    <g
       id="g29">
      <g
         id="g28">
        <path
           d="m 4.421875,-2.5 c 0,-1.0625 -0.890625,-1.921875 -1.921875,-1.921875 -1.078125,0 -1.953125,0.890625 -1.953125,1.921875 0,1.0625 0.875,1.9375 1.953125,1.9375 1.03125,0 1.921875,-0.859375 1.921875,-1.9375 z M 2.5,-0.953125 c -0.875,0 -1.546875,-0.703125 -1.546875,-1.546875 0,-0.828125 0.6875,-1.53125 1.546875,-1.53125 0.8125,0 1.53125,0.6875 1.53125,1.53125 0,0.859375 -0.71875,1.546875 -1.53125,1.546875 z m 0,0"
           id="path27" />
      </g>
    </g>
    <g
       id="g31">
      <g
         id="g30">
        <path
           d="m 6.84375,-3.265625 c 0.15625,0 0.34375,0 0.34375,-0.1875 C 7.1875,-3.65625 7,-3.65625 6.859375,-3.65625 h -5.96875 c -0.140625,0 -0.328125,0 -0.328125,0.203125 0,0.1875 0.1875,0.1875 0.328125,0.1875 z m 0.015625,1.9375 c 0.140625,0 0.328125,0 0.328125,-0.203125 0,-0.1875 -0.1875,-0.1875 -0.34375,-0.1875 H 0.890625 c -0.140625,0 -0.328125,0 -0.328125,0.1875 0,0.203125 0.1875,0.203125 0.328125,0.203125 z m 0,0"
           id="path29" />
      </g>
    </g>
    <g
       id="id-8dea29db-e6b2-42ed-85fc-c23fe733d9d2">
      <g
         id="id-6367d6c8-f370-4640-a9ae-322b5154c823">
        <path
           d="m 3.953125,-3.78125 c -0.171875,0 -0.296875,0 -0.4375,0.125 -0.171875,0.15625 -0.1875,0.328125 -0.1875,0.390625 0,0.25 0.1875,0.359375 0.375,0.359375 0.28125,0 0.546875,-0.25 0.546875,-0.640625 0,-0.484375 -0.46875,-0.859375 -1.171875,-0.859375 -1.34375,0 -2.671875,1.421875 -2.671875,2.828125 0,0.90625 0.578125,1.6875 1.625,1.6875 1.421875,0 2.25,-1.0625 2.25,-1.171875 0,-0.0625 -0.046875,-0.140625 -0.109375,-0.140625 -0.0625,0 -0.078125,0.03125 -0.140625,0.109375 -0.78125,0.984375 -1.875,0.984375 -1.984375,0.984375 -0.625,0 -0.90625,-0.484375 -0.90625,-1.09375 0,-0.40625 0.203125,-1.375 0.546875,-1.984375 0.3125,-0.578125 0.859375,-1 1.40625,-1 0.328125,0 0.71875,0.125 0.859375,0.40625 z m 0,0"
           id="id-f68fbef6-ab20-440c-a3ac-fc84640cd7c6" />
      </g>
      <g
         id="id-a71daa0a-b649-4489-9168-695d34ef126d">
        <path
           d="m 2.015625,-3.296875 c 0.0625,-0.109375 0.0625,-0.171875 0.0625,-0.21875 0,-0.21875 -0.1875,-0.375 -0.40625,-0.375 -0.265625,0 -0.34375,0.21875 -0.375,0.328125 L 0.375,-0.546875 c -0.015625,0.015625 -0.046875,0.09375 -0.046875,0.109375 0,0.078125 0.21875,0.15625 0.28125,0.15625 0.046875,0 0.046875,-0.015625 0.09375,-0.125 z m 0,0"
           id="id-1a847a9e-7d0a-4678-b30d-05c1f8190c29" />
      </g>
    </g>
    <g
       id="id-bf7a84f6-9503-4e77-85f0-d5a7c44509ce">
      <g
         id="id-617d65bb-d24d-4b4e-b6ba-aed348df2718">
        <path
           d="m 3.953125,-3.78125 c -0.171875,0 -0.296875,0 -0.4375,0.125 -0.171875,0.15625 -0.1875,0.328125 -0.1875,0.390625 0,0.25 0.1875,0.359375 0.375,0.359375 0.28125,0 0.546875,-0.25 0.546875,-0.640625 0,-0.484375 -0.46875,-0.859375 -1.171875,-0.859375 -1.34375,0 -2.671875,1.421875 -2.671875,2.828125 0,0.90625 0.578125,1.6875 1.625,1.6875 1.421875,0 2.25,-1.0625 2.25,-1.171875 0,-0.0625 -0.046875,-0.140625 -0.109375,-0.140625 -0.0625,0 -0.078125,0.03125 -0.140625,0.109375 -0.78125,0.984375 -1.875,0.984375 -1.984375,0.984375 -0.625,0 -0.90625,-0.484375 -0.90625,-1.09375 0,-0.40625 0.203125,-1.375 0.546875,-1.984375 0.3125,-0.578125 0.859375,-1 1.40625,-1 0.328125,0 0.71875,0.125 0.859375,0.40625 z m 0,0"
           id="id-a0facde0-2f47-4ace-a6b2-dd67e0cff523" />
      </g>
      <g
         id="id-04d5bd0a-0115-4210-91c8-11f234974544">
        <path
           d="m 7.203125,-2.5 c 0,-1.828125 -1.5,-3.3125 -3.328125,-3.3125 -1.84375,0 -3.328125,1.5 -3.328125,3.3125 0,1.84375 1.5,3.328125 3.328125,3.328125 1.84375,0 3.328125,-1.5 3.328125,-3.328125 z m -5.3125,-2.140625 C 1.875,-4.65625 1.796875,-4.71875 1.796875,-4.75 c 0,-0.03125 0.8125,-0.8125 2.078125,-0.8125 0.34375,0 1.265625,0.046875 2.078125,0.8125 L 3.875,-2.65625 Z M 1.609375,-0.40625 C 1,-1.09375 0.796875,-1.859375 0.796875,-2.5 c 0,-0.765625 0.296875,-1.484375 0.8125,-2.078125 L 3.6875,-2.5 Z M 6.125,-4.578125 C 6.609375,-4.0625 6.953125,-3.3125 6.953125,-2.5 c 0,0.78125 -0.296875,1.5 -0.8125,2.09375 L 4.0625,-2.5 Z M 5.859375,-0.34375 C 5.875,-0.328125 5.9375,-0.265625 5.9375,-0.234375 c 0,0.03125 -0.796875,0.8125 -2.0625,0.8125 -0.34375,0 -1.265625,-0.046875 -2.078125,-0.8125 L 3.875,-2.328125 Z m 0,0"
           id="id-9cce177c-20ca-48bf-b90e-e9ea1e65bb47" />
      </g>
      <g
         id="id-ae7c21ab-127c-40fa-874e-3dc1514a1b6e">
        <path
           d="m 2.015625,-3.296875 c 0.0625,-0.109375 0.0625,-0.171875 0.0625,-0.21875 0,-0.21875 -0.1875,-0.375 -0.40625,-0.375 -0.265625,0 -0.34375,0.21875 -0.375,0.328125 L 0.375,-0.546875 c -0.015625,0.015625 -0.046875,0.09375 -0.046875,0.109375 0,0.078125 0.21875,0.15625 0.28125,0.15625 0.046875,0 0.046875,-0.015625 0.09375,-0.125 z m 0,0"
           id="id-1155b67c-64ba-47f8-a927-e6ba209720f4" />
      </g>
    </g>
  </defs>
  <g
     inkscape:label="Layer 1"
     inkscape:groupmode="layer"
     id="layer1">
    <circle
       style="fill:#000000;fill-opacity:1;stroke:none;stroke-width:0.264583;stroke-dasharray:0.264583, 0.264583"
       id="path6-7-4-6-7-1-1-1-4-9-2-4-1-6-8"
       cx="-50.702927"
       cy="98.098381"
       r="0.66145831"
       transform="scale(-1,1)" />
    <circle
       style="fill:#000000;fill-opacity:1;stroke:none;stroke-width:0.264583;stroke-dasharray:0.264583, 0.264583"
       id="path6-7-4-6-7-1-1-1-4-9-2-4-8-33-2"
       cx="-55.865845"
       cy="117.34513"
       r="0.66145831"
       transform="scale(-1,1)" />
    <path
       style="fill:none;stroke:#000000;stroke-width:0.264583px;stroke-linecap:butt;stroke-linejoin:miter;stroke-opacity:1"
       d="m 63.384442,98.199726 h -21.027"
       id="path1-6-9-4-7-7-5-3-1-1-0-5-1"
       sodipodi:nodetypes="cc" />
    <path
       style="fill:none;stroke:#000000;stroke-width:0.264583px;stroke-linecap:butt;stroke-linejoin:miter;stroke-opacity:1"
       d="m 63.242442,117.38872 h -21.027"
       id="path1-6-9-4-7-7-5-3-1-1-5-4-5-6"
       sodipodi:nodetypes="cc" />
    <path
       style="fill:none;fill-opacity:1;stroke:#000000;stroke-width:0.264999;stroke-dasharray:none;stroke-opacity:1"
       d="m 50.757082,98.225876 5.21371,19.280884"
       id="path24-3-8" />
    <g
       transform="matrix(0.352778,-7.4856e-8,7.4856e-8,0.352778,55.274239,107.63184)"
       ns9:version="1.10.2"
       ns9:texconverter="pdflatex"
       ns9:pdfconverter="inkscape"
       ns9:text="$c$"
       ns9:preamble="C:\Users\test\AppData\Roaming\inkscape\extensions\textext\default_packages.tex"
       ns9:scale="1.0"
       ns9:alignment="middle center"
       ns9:stroke-to-path="0"
       ns9:inkscapeversion="1.4"
       ns9:jacobian_sqrt="0.3527780000000079"
       style="fill:#000000;fill-opacity:1;stroke-width:0"
       id="g191-2-21-6-3">
      <defs
         id="id-2c2b2c71-66de-4a1e-aacf-209810b0b2b5"
         style="fill:#000000;fill-opacity:1;stroke-width:0">
        <g
           id="g2"
           style="fill:#000000;fill-opacity:1;stroke-width:0">
          <g
             id="g1"
             style="fill:#000000;fill-opacity:1;stroke-width:0">
            <path
               d="m 3.953125,-3.78125 c -0.171875,0 -0.296875,0 -0.4375,0.125 -0.171875,0.15625 -0.1875,0.328125 -0.1875,0.390625 0,0.25 0.1875,0.359375 0.375,0.359375 0.28125,0 0.546875,-0.25 0.546875,-0.640625 0,-0.484375 -0.46875,-0.859375 -1.171875,-0.859375 -1.34375,0 -2.671875,1.421875 -2.671875,2.828125 0,0.90625 0.578125,1.6875 1.625,1.6875 1.421875,0 2.25,-1.0625 2.25,-1.171875 0,-0.0625 -0.046875,-0.140625 -0.109375,-0.140625 -0.0625,0 -0.078125,0.03125 -0.140625,0.109375 -0.78125,0.984375 -1.875,0.984375 -1.984375,0.984375 -0.625,0 -0.90625,-0.484375 -0.90625,-1.09375 0,-0.40625 0.203125,-1.375 0.546875,-1.984375 0.3125,-0.578125 0.859375,-1 1.40625,-1 0.328125,0 0.71875,0.125 0.859375,0.40625 z m 0,0"
               id="path1"
               style="fill:#000000;fill-opacity:1;stroke-width:0" />
          </g>
        </g>
      </defs>
      <g
         fill-opacity="1"
         id="id-367647ae-7c5e-4030-926c-272d878bd690"
         transform="translate(-149.118,-130.359)"
         style="fill:#000000;fill-opacity:1;stroke-width:0">
        <g
           transform="translate(148.712,134.765)"
           style="fill:#000000;fill-opacity:1;stroke-width:0"
           id="g278">
          <path
             d="m 3.953125,-3.78125 c -0.171875,0 -0.296875,0 -0.4375,0.125 -0.171875,0.15625 -0.1875,0.328125 -0.1875,0.390625 0,0.25 0.1875,0.359375 0.375,0.359375 0.28125,0 0.546875,-0.25 0.546875,-0.640625 0,-0.484375 -0.46875,-0.859375 -1.171875,-0.859375 -1.34375,0 -2.671875,1.421875 -2.671875,2.828125 0,0.90625 0.578125,1.6875 1.625,1.6875 1.421875,0 2.25,-1.0625 2.25,-1.171875 0,-0.0625 -0.046875,-0.140625 -0.109375,-0.140625 -0.0625,0 -0.078125,0.03125 -0.140625,0.109375 -0.78125,0.984375 -1.875,0.984375 -1.984375,0.984375 -0.625,0 -0.90625,-0.484375 -0.90625,-1.09375 0,-0.40625 0.203125,-1.375 0.546875,-1.984375 0.3125,-0.578125 0.859375,-1 1.40625,-1 0.328125,0 0.71875,0.125 0.859375,0.40625 z m 0,0"
             id="id-02c62b90-c0cc-4be3-8bf7-8e1664909d8f"
             style="fill:#000000;fill-opacity:1;stroke-width:0" />
        </g>
      </g>
    </g>
    <circle
       style="fill:#000000;fill-opacity:1;stroke:none;stroke-width:0.264583;stroke-dasharray:0.264583, 0.264583"
       id="path6-7-4-6-7-1-1-1-4-9-2-4-1-6-8-2"
       cx="-71.729927"
       cy="98.098373"
       r="0.66145831"
       transform="scale(-1,1)" />
    <circle
       style="fill:#000000;fill-opacity:1;stroke:none;stroke-width:0.264583;stroke-dasharray:0.264583, 0.264583"
       id="path6-7-4-6-7-1-1-1-4-9-2-4-8-33-2-8"
       cx="-76.892845"
       cy="117.34511"
       r="0.66145831"
       transform="scale(-1,1)" />
    <path
       style="fill:none;stroke:#000000;stroke-width:0.264583px;stroke-linecap:butt;stroke-linejoin:miter;stroke-opacity:1"
       d="m 84.411442,98.199726 h -21.027"
       id="path1-6-9-4-7-7-5-3-1-1-0-5-1-2"
       sodipodi:nodetypes="cc" />
    <path
       style="fill:none;stroke:#000000;stroke-width:0.264583px;stroke-linecap:butt;stroke-linejoin:miter;stroke-opacity:1"
       d="m 84.269442,117.38872 h -21.027"
       id="path1-6-9-4-7-7-5-3-1-1-5-4-5-6-5"
       sodipodi:nodetypes="cc" />
    <path
       style="fill:none;fill-opacity:1;stroke:#000000;stroke-width:0.264999;stroke-dasharray:none;stroke-opacity:1"
       d="m 71.784082,98.225876 5.21371,19.280884"
       id="path24-3-8-3" />
    <g
       transform="matrix(0.352778,0,0,0.352778,87.604302,108.4565)"
       ns9:version="1.10.2"
       ns9:texconverter="pdflatex"
       ns9:pdfconverter="inkscape"
       ns9:text="$=$"
       ns9:preamble="C:\Users\test\AppData\Roaming\inkscape\extensions\textext\default_packages.tex"
       ns9:scale="1.0"
       ns9:alignment="middle center"
       ns9:stroke-to-path="0"
       ns9:inkscapeversion="1.4"
       ns9:jacobian_sqrt="0.352778"
       id="g319">
      <defs
         id="id-de158d76-3bbf-46f1-9df2-fd2982a9630c">
        <g
           id="g6">
          <g
             id="g5">
            <path
               d="m 6.84375,-3.265625 c 0.15625,0 0.34375,0 0.34375,-0.1875 C 7.1875,-3.65625 7,-3.65625 6.859375,-3.65625 h -5.96875 c -0.140625,0 -0.328125,0 -0.328125,0.203125 0,0.1875 0.1875,0.1875 0.328125,0.1875 z m 0.015625,1.9375 c 0.140625,0 0.328125,0 0.328125,-0.203125 0,-0.1875 -0.1875,-0.1875 -0.34375,-0.1875 H 0.890625 c -0.140625,0 -0.328125,0 -0.328125,0.1875 0,0.203125 0.1875,0.203125 0.328125,0.203125 z m 0,0"
               id="path4" />
          </g>
        </g>
      </defs>
      <g
         fill="#000000"
         fill-opacity="1"
         id="id-9abf3991-ca60-4224-8582-b568c5668cec"
         transform="translate(-149.275,-131.109)">
        <g
           transform="translate(148.712,134.765)"
           id="g318">
          <path
             d="m 6.84375,-3.265625 c 0.15625,0 0.34375,0 0.34375,-0.1875 C 7.1875,-3.65625 7,-3.65625 6.859375,-3.65625 h -5.96875 c -0.140625,0 -0.328125,0 -0.328125,0.203125 0,0.1875 0.1875,0.1875 0.328125,0.1875 z m 0.015625,1.9375 c 0.140625,0 0.328125,0 0.328125,-0.203125 0,-0.1875 -0.1875,-0.1875 -0.34375,-0.1875 H 0.890625 c -0.140625,0 -0.328125,0 -0.328125,0.1875 0,0.203125 0.1875,0.203125 0.328125,0.203125 z m 0,0"
             id="id-9e1b840b-6dac-4e9d-bc64-6c36fd85529a" />
        </g>
      </g>
    </g>
    <g
       transform="matrix(0.352778,0,0,0.352778,76.561893,106.52766)"
       ns9:version="1.10.2"
       ns9:texconverter="pdflatex"
       ns9:pdfconverter="inkscape"
       ns9:text="$c'$"
       ns9:preamble="C:\Users\test\AppData\Roaming\inkscape\extensions\textext\default_packages.tex"
       ns9:scale="1.0"
       ns9:alignment="middle center"
       ns9:stroke-to-path="0"
       ns9:jacobian_sqrt="0.352778"
       id="g34">
      <defs
         id="id-329653b3-de9f-42fe-a64e-28b59afd8b8c">
        <g
           id="g9">
          <g
             id="g7">
            <path
               d="m 3.953125,-3.78125 c -0.171875,0 -0.296875,0 -0.4375,0.125 -0.171875,0.15625 -0.1875,0.328125 -0.1875,0.390625 0,0.25 0.1875,0.359375 0.375,0.359375 0.28125,0 0.546875,-0.25 0.546875,-0.640625 0,-0.484375 -0.46875,-0.859375 -1.171875,-0.859375 -1.34375,0 -2.671875,1.421875 -2.671875,2.828125 0,0.90625 0.578125,1.6875 1.625,1.6875 1.421875,0 2.25,-1.0625 2.25,-1.171875 0,-0.0625 -0.046875,-0.140625 -0.109375,-0.140625 -0.0625,0 -0.078125,0.03125 -0.140625,0.109375 -0.78125,0.984375 -1.875,0.984375 -1.984375,0.984375 -0.625,0 -0.90625,-0.484375 -0.90625,-1.09375 0,-0.40625 0.203125,-1.375 0.546875,-1.984375 0.3125,-0.578125 0.859375,-1 1.40625,-1 0.328125,0 0.71875,0.125 0.859375,0.40625 z m 0,0"
               id="path6" />
          </g>
          <g
             id="g8">
            <path
               d="m 2.015625,-3.296875 c 0.0625,-0.109375 0.0625,-0.171875 0.0625,-0.21875 0,-0.21875 -0.1875,-0.375 -0.40625,-0.375 -0.265625,0 -0.34375,0.21875 -0.375,0.328125 L 0.375,-0.546875 c -0.015625,0.015625 -0.046875,0.09375 -0.046875,0.109375 0,0.078125 0.21875,0.15625 0.28125,0.15625 0.046875,0 0.046875,-0.015625 0.09375,-0.125 z m 0,0"
               id="path7" />
          </g>
        </g>
      </defs>
      <g
         fill="#000000"
         fill-opacity="1"
         id="id-ce7469a8-5edc-4e26-877d-34a4902ec284"
         transform="translate(-149.118,-127.258)">
        <g
           transform="translate(148.712,134.765)"
           id="g32">
          <path
             d="m 3.953125,-3.78125 c -0.171875,0 -0.296875,0 -0.4375,0.125 -0.171875,0.15625 -0.1875,0.328125 -0.1875,0.390625 0,0.25 0.1875,0.359375 0.375,0.359375 0.28125,0 0.546875,-0.25 0.546875,-0.640625 0,-0.484375 -0.46875,-0.859375 -1.171875,-0.859375 -1.34375,0 -2.671875,1.421875 -2.671875,2.828125 0,0.90625 0.578125,1.6875 1.625,1.6875 1.421875,0 2.25,-1.0625 2.25,-1.171875 0,-0.0625 -0.046875,-0.140625 -0.109375,-0.140625 -0.0625,0 -0.078125,0.03125 -0.140625,0.109375 -0.78125,0.984375 -1.875,0.984375 -1.984375,0.984375 -0.625,0 -0.90625,-0.484375 -0.90625,-1.09375 0,-0.40625 0.203125,-1.375 0.546875,-1.984375 0.3125,-0.578125 0.859375,-1 1.40625,-1 0.328125,0 0.71875,0.125 0.859375,0.40625 z m 0,0"
             id="id-5637dded-d831-4c02-9452-c69e5548bc93" />
        </g>
      </g>
      <g
         fill="#000000"
         fill-opacity="1"
         id="id-cdf2eb9c-0cd8-48cb-9158-754c26b7be78"
         transform="translate(-149.118,-127.258)">
        <g
           transform="translate(153.024,131.149)"
           id="g33">
          <path
             d="m 2.015625,-3.296875 c 0.0625,-0.109375 0.0625,-0.171875 0.0625,-0.21875 0,-0.21875 -0.1875,-0.375 -0.40625,-0.375 -0.265625,0 -0.34375,0.21875 -0.375,0.328125 L 0.375,-0.546875 c -0.015625,0.015625 -0.046875,0.09375 -0.046875,0.109375 0,0.078125 0.21875,0.15625 0.28125,0.15625 0.046875,0 0.046875,-0.015625 0.09375,-0.125 z m 0,0"
             id="id-8bce810e-4c41-464a-a733-48e1b8f2c840" />
        </g>
      </g>
    </g>
    <circle
       style="fill:#000000;fill-opacity:1;stroke:none;stroke-width:0.264583;stroke-dasharray:0.264583, 0.264583"
       id="path6-7-4-6-7-1-1-1-4-9-2-4-1-6-8-2-8"
       cx="-101.93224"
       cy="98.148735"
       r="0.66145831"
       transform="scale(-1,1)" />
    <circle
       style="fill:#000000;fill-opacity:1;stroke:none;stroke-width:0.264583;stroke-dasharray:0.264583, 0.264583"
       id="path6-7-4-6-7-1-1-1-4-9-2-4-8-33-2-8-1"
       cx="-107.09514"
       cy="117.39548"
       r="0.66145831"
       transform="scale(-1,1)" />
    <path
       style="fill:none;stroke:#000000;stroke-width:0.264583px;stroke-linecap:butt;stroke-linejoin:miter;stroke-opacity:1"
       d="m 114.61374,98.250076 h -21.027"
       id="path1-6-9-4-7-7-5-3-1-1-0-5-1-2-2"
       sodipodi:nodetypes="cc" />
    <path
       style="fill:none;stroke:#000000;stroke-width:0.264583px;stroke-linecap:butt;stroke-linejoin:miter;stroke-opacity:1"
       d="m 114.47174,117.43907 h -21.027"
       id="path1-6-9-4-7-7-5-3-1-1-5-4-5-6-5-5"
       sodipodi:nodetypes="cc" />
    <path
       style="fill:none;fill-opacity:1;stroke:#000000;stroke-width:0.264999;stroke-dasharray:none;stroke-opacity:1"
       d="m 101.98638,98.276226 5.21371,19.280884"
       id="path24-3-8-3-7" />
    <g
       transform="matrix(0.352778,0,0,0.352778,106.50421,106.211)"
       ns9:version="1.10.2"
       ns9:texconverter="pdflatex"
       ns9:pdfconverter="inkscape"
       ns9:text="$c\\otimes c'$"
       ns9:preamble="C:\Users\test\AppData\Roaming\inkscape\extensions\textext\default_packages.tex"
       ns9:scale="1.0"
       ns9:alignment="middle center"
       ns9:stroke-to-path="0"
       ns9:jacobian_sqrt="0.352778"
       id="g44">
      <defs
         id="id-9c5686fc-cd5e-4886-aef9-87b384267f48">
        <g
           id="g13">
          <g
             id="g10">
            <path
               d="m 3.953125,-3.78125 c -0.171875,0 -0.296875,0 -0.4375,0.125 -0.171875,0.15625 -0.1875,0.328125 -0.1875,0.390625 0,0.25 0.1875,0.359375 0.375,0.359375 0.28125,0 0.546875,-0.25 0.546875,-0.640625 0,-0.484375 -0.46875,-0.859375 -1.171875,-0.859375 -1.34375,0 -2.671875,1.421875 -2.671875,2.828125 0,0.90625 0.578125,1.6875 1.625,1.6875 1.421875,0 2.25,-1.0625 2.25,-1.171875 0,-0.0625 -0.046875,-0.140625 -0.109375,-0.140625 -0.0625,0 -0.078125,0.03125 -0.140625,0.109375 -0.78125,0.984375 -1.875,0.984375 -1.984375,0.984375 -0.625,0 -0.90625,-0.484375 -0.90625,-1.09375 0,-0.40625 0.203125,-1.375 0.546875,-1.984375 0.3125,-0.578125 0.859375,-1 1.40625,-1 0.328125,0 0.71875,0.125 0.859375,0.40625 z m 0,0"
               id="path9" />
          </g>
          <g
             id="g11">
            <path
               d="m 7.203125,-2.5 c 0,-1.828125 -1.5,-3.3125 -3.328125,-3.3125 -1.84375,0 -3.328125,1.5 -3.328125,3.3125 0,1.84375 1.5,3.328125 3.328125,3.328125 1.84375,0 3.328125,-1.5 3.328125,-3.328125 z m -5.3125,-2.140625 C 1.875,-4.65625 1.796875,-4.71875 1.796875,-4.75 c 0,-0.03125 0.8125,-0.8125 2.078125,-0.8125 0.34375,0 1.265625,0.046875 2.078125,0.8125 L 3.875,-2.65625 Z M 1.609375,-0.40625 C 1,-1.09375 0.796875,-1.859375 0.796875,-2.5 c 0,-0.765625 0.296875,-1.484375 0.8125,-2.078125 L 3.6875,-2.5 Z M 6.125,-4.578125 C 6.609375,-4.0625 6.953125,-3.3125 6.953125,-2.5 c 0,0.78125 -0.296875,1.5 -0.8125,2.09375 L 4.0625,-2.5 Z M 5.859375,-0.34375 C 5.875,-0.328125 5.9375,-0.265625 5.9375,-0.234375 c 0,0.03125 -0.796875,0.8125 -2.0625,0.8125 -0.34375,0 -1.265625,-0.046875 -2.078125,-0.8125 L 3.875,-2.328125 Z m 0,0"
               id="path10" />
          </g>
          <g
             id="g12">
            <path
               d="m 2.015625,-3.296875 c 0.0625,-0.109375 0.0625,-0.171875 0.0625,-0.21875 0,-0.21875 -0.1875,-0.375 -0.40625,-0.375 -0.265625,0 -0.34375,0.21875 -0.375,0.328125 L 0.375,-0.546875 c -0.015625,0.015625 -0.046875,0.09375 -0.046875,0.109375 0,0.078125 0.21875,0.15625 0.28125,0.15625 0.046875,0 0.046875,-0.015625 0.09375,-0.125 z m 0,0"
               id="path11" />
          </g>
        </g>
      </defs>
      <g
         fill="#000000"
         fill-opacity="1"
         id="id-9ca9ffbe-0059-4cb6-9374-1311776e8d9f"
         transform="translate(-149.118,-127.258)">
        <g
           transform="translate(148.712,134.765)"
           id="g40">
          <path
             d="m 3.953125,-3.78125 c -0.171875,0 -0.296875,0 -0.4375,0.125 -0.171875,0.15625 -0.1875,0.328125 -0.1875,0.390625 0,0.25 0.1875,0.359375 0.375,0.359375 0.28125,0 0.546875,-0.25 0.546875,-0.640625 0,-0.484375 -0.46875,-0.859375 -1.171875,-0.859375 -1.34375,0 -2.671875,1.421875 -2.671875,2.828125 0,0.90625 0.578125,1.6875 1.625,1.6875 1.421875,0 2.25,-1.0625 2.25,-1.171875 0,-0.0625 -0.046875,-0.140625 -0.109375,-0.140625 -0.0625,0 -0.078125,0.03125 -0.140625,0.109375 -0.78125,0.984375 -1.875,0.984375 -1.984375,0.984375 -0.625,0 -0.90625,-0.484375 -0.90625,-1.09375 0,-0.40625 0.203125,-1.375 0.546875,-1.984375 0.3125,-0.578125 0.859375,-1 1.40625,-1 0.328125,0 0.71875,0.125 0.859375,0.40625 z m 0,0"
             id="id-2d3558b6-bd78-46d1-8b8c-b6289cd7e629" />
        </g>
      </g>
      <g
         fill="#000000"
         fill-opacity="1"
         id="id-8b10a562-1071-4cb4-8b84-d6682d874902"
         transform="translate(-149.118,-127.258)">
        <g
           transform="translate(155.238,134.765)"
           id="g41">
          <path
             d="m 7.203125,-2.5 c 0,-1.828125 -1.5,-3.3125 -3.328125,-3.3125 -1.84375,0 -3.328125,1.5 -3.328125,3.3125 0,1.84375 1.5,3.328125 3.328125,3.328125 1.84375,0 3.328125,-1.5 3.328125,-3.328125 z m -5.3125,-2.140625 C 1.875,-4.65625 1.796875,-4.71875 1.796875,-4.75 c 0,-0.03125 0.8125,-0.8125 2.078125,-0.8125 0.34375,0 1.265625,0.046875 2.078125,0.8125 L 3.875,-2.65625 Z M 1.609375,-0.40625 C 1,-1.09375 0.796875,-1.859375 0.796875,-2.5 c 0,-0.765625 0.296875,-1.484375 0.8125,-2.078125 L 3.6875,-2.5 Z M 6.125,-4.578125 C 6.609375,-4.0625 6.953125,-3.3125 6.953125,-2.5 c 0,0.78125 -0.296875,1.5 -0.8125,2.09375 L 4.0625,-2.5 Z M 5.859375,-0.34375 C 5.875,-0.328125 5.9375,-0.265625 5.9375,-0.234375 c 0,0.03125 -0.796875,0.8125 -2.0625,0.8125 -0.34375,0 -1.265625,-0.046875 -2.078125,-0.8125 L 3.875,-2.328125 Z m 0,0"
             id="id-e048efa7-4381-4070-af06-bfdafb9ec2b1" />
        </g>
      </g>
      <g
         fill="#000000"
         fill-opacity="1"
         id="id-dcc0518f-905e-4c8f-ad06-76f05655d4ef"
         transform="translate(-149.118,-127.258)">
        <g
           transform="translate(165.2,134.765)"
           id="g42">
          <path
             d="m 3.953125,-3.78125 c -0.171875,0 -0.296875,0 -0.4375,0.125 -0.171875,0.15625 -0.1875,0.328125 -0.1875,0.390625 0,0.25 0.1875,0.359375 0.375,0.359375 0.28125,0 0.546875,-0.25 0.546875,-0.640625 0,-0.484375 -0.46875,-0.859375 -1.171875,-0.859375 -1.34375,0 -2.671875,1.421875 -2.671875,2.828125 0,0.90625 0.578125,1.6875 1.625,1.6875 1.421875,0 2.25,-1.0625 2.25,-1.171875 0,-0.0625 -0.046875,-0.140625 -0.109375,-0.140625 -0.0625,0 -0.078125,0.03125 -0.140625,0.109375 -0.78125,0.984375 -1.875,0.984375 -1.984375,0.984375 -0.625,0 -0.90625,-0.484375 -0.90625,-1.09375 0,-0.40625 0.203125,-1.375 0.546875,-1.984375 0.3125,-0.578125 0.859375,-1 1.40625,-1 0.328125,0 0.71875,0.125 0.859375,0.40625 z m 0,0"
             id="id-1ec68535-09f6-4971-9ef5-a68730863526" />
        </g>
      </g>
      <g
         fill="#000000"
         fill-opacity="1"
         id="id-270de16c-b647-4362-898a-d62fe6e353dd"
         transform="translate(-149.118,-127.258)">
        <g
           transform="translate(169.512,131.149)"
           id="g43">
          <path
             d="m 2.015625,-3.296875 c 0.0625,-0.109375 0.0625,-0.171875 0.0625,-0.21875 0,-0.21875 -0.1875,-0.375 -0.40625,-0.375 -0.265625,0 -0.34375,0.21875 -0.375,0.328125 L 0.375,-0.546875 c -0.015625,0.015625 -0.046875,0.09375 -0.046875,0.109375 0,0.078125 0.21875,0.15625 0.28125,0.15625 0.046875,0 0.046875,-0.015625 0.09375,-0.125 z m 0,0"
             id="id-db70cf4f-fe88-4e55-b101-6c01eb67dfc4" />
        </g>
      </g>
    </g>
  </g>
</svg>
